<svg xmlns="http://www.w3.org/2000/svg" viewBox="0 0 632 220" width="632" height="220"><rect width="632" height="220" rx="12" fill="#ffffff" stroke="#e0e0e0"/><text x="16" y="22" font-size="14" font-weight="500" fill="#222">Rain forecast</text><text x="16" y="44" font-size="18" font-weight="500" fill="#222">14:25 (in 30 minutes)</text><text x="320" y="44" font-size="11" fill="#777">shower expected</text><g transform="translate(16, 60)"><line x1="36" y1="118.00" x2="588" y2="118.00" stroke="#ddd" stroke-width="1"/><text x="32" y="12.00" text-anchor="end" font-size="9" fill="#777">3.5 mm/h</text><text x="32" y="117.00" text-anchor="end" font-size="9" fill="#777">0</text><rect x="36.00" y="118.00" width="21.00" height="0.00" fill="rgba(120, 144, 156, 0.25)"/><rect x="59.00" y="118.00" width="21.00" height="0.00" fill="rgba(120, 144, 156, 0.25)"/><rect x="82.00" y="118.00" width="21.00" height="0.00" fill="rgba(120, 144, 156, 0.25)"/><rect x="105.00" y="118.00" width="21.00" height="0.00" fill="rgba(120, 144, 156, 0.25)"/><rect x="128.00" y="116.51" width="21.00" height="1.49" fill="#90caf9"/><rect x="151.00" y="113.54" width="21.00" height="4.46" fill="#42a5f5"/><rect x="174.00" y="106.11" width="21.00" height="11.89" fill="#42a5f5"/><rect x="197.00" y="94.23" width="21.00" height="23.77" fill="#42a5f5"/><rect x="220.00" y="76.40" width="21.00" height="41.60" fill="#fb8c00"/><rect x="243.00" y="52.63" width="21.00" height="65.37" fill="#fb8c00"/><rect x="266.00" y="25.89" width="21.00" height="92.11" fill="#e53935"/><rect x="289.00" y="14.00" width="21.00" height="104.00" fill="#e53935"/><rect x="312.00" y="34.80" width="21.00" height="83.20" fill="#e53935"/><rect x="335.00" y="61.54" width="21.00" height="56.46" fill="#fb8c00"/><rect x="358.00" y="85.31" width="21.00" height="32.69" fill="#fb8c00"/><rect x="381.00" y="100.17" width="21.00" height="17.83" fill="#42a5f5"/><rect x="404.00" y="109.09" width="21.00" height="8.91" fill="#42a5f5"/><rect x="427.00" y="113.54" width="21.00" height="4.46" fill="#42a5f5"/><rect x="450.00" y="116.51" width="21.00" height="1.49" fill="#90caf9"/><rect x="473.00" y="118.00" width="21.00" height="0.00" fill="rgba(120, 144, 156, 0.25)"/><rect x="496.00" y="118.00" width="21.00" height="0.00" fill="rgba(120, 144, 156, 0.25)"/><rect x="519.00" y="118.00" width="21.00" height="0.00" fill="rgba(120, 144, 156, 0.25)"/><rect x="542.00" y="118.00" width="21.00" height="0.00" fill="rgba(120, 144, 156, 0.25)"/><rect x="565.00" y="118.00" width="21.00" height="0.00" fill="rgba(120, 144, 156, 0.25)"/><line x1="36" y1="115.03" x2="588" y2="115.03" stroke="#42a5f5" stroke-width="1" stroke-dasharray="3 3" opacity="0.65"/><text x="32" y="118.03" text-anchor="end" font-size="9" fill="#42a5f5" opacity="0.85">L</text><line x1="36" y1="88.29" x2="588" y2="88.29" stroke="#fb8c00" stroke-width="1" stroke-dasharray="3 3" opacity="0.65"/><text x="32" y="91.29" text-anchor="end" font-size="9" fill="#fb8c00" opacity="0.85">M</text><line x1="36" y1="43.71" x2="588" y2="43.71" stroke="#e53935" stroke-width="1" stroke-dasharray="3 3" opacity="0.65"/><text x="32" y="46.71" text-anchor="end" font-size="9" fill="#e53935" opacity="0.85">H</text><text x="47.50" y="134.00" text-anchor="middle" font-size="10" fill="#777">14:00</text><text x="185.50" y="134.00" text-anchor="middle" font-size="10" fill="#777">14:30</text><text x="323.50" y="134.00" text-anchor="middle" font-size="10" fill="#777">15:00</text><text x="461.50" y="134.00" text-anchor="middle" font-size="10" fill="#777">15:30</text><text x="576.50" y="134.00" text-anchor="middle" font-size="10" fill="#777">15:55</text></g>
    <g font-size="10" fill="#666">
      <rect x="16" y="204" width="8" height="8" fill="#90caf9"/>
      <text x="28" y="211">trace</text>
      <rect x="60" y="204" width="8" height="8" fill="#42a5f5"/>
      <text x="72" y="211">light</text>
      <rect x="100" y="204" width="8" height="8" fill="#fb8c00"/>
      <text x="112" y="211">moderate</text>
      <rect x="160" y="204" width="8" height="8" fill="#e53935"/>
      <text x="172" y="211">heavy</text>
    </g>
  </svg>